PathFileType	4	(X/Y/Z)	C:\Users\dbl\Desktop\20210112(1)\20210112\bx_y_0_501.trc
DataRate	CameraRate	NumFrames	NumMarkers	Units	OrigDataRate	OrigDataStartFrame	OrigNumFrames
50.00	50.00	       9	43	mm	50.00	377	       603
Frame#	Time	Top.Head			R.Acromium			L.Acromium			Sternum			R.ASIS			L.ASIS			V.Sacral			R.Thigh.Upper			R.Thigh.Front			R.Thigh.Rear			R.Knee.Lat			R.Knee.Med			R.Shank.Upper			R.Shank.Front			R.Shank.Rear			R.Ankle.Lat			R.Midfoot.Lat			R.Toe.Lat			R.Toe.Tip			R.Toe.Med			R.Ankle.Med			R.Midfoot.Sup			R.Heel			L.Thigh.Upper			L.Thigh.Front			L.Thigh.Rear			L.Knee.Lat			L.Knee.Med			L.Shank.Upper			L.Shank.Front			L.Shank.Rear			L.Ankle.Lat			L.Midfoot.Lat			L.Toe.Lat			L.Toe.Tip			L.Toe.Med			L.Ankle.Med			L.Midfoot.Sup			L.Heel			origin1 front left			origin2 front right			origin 3 back right			origin 4 back leftt			
		X1	Y1	Z1	X2	Y2	Z2	X3	Y3	Z3	X4	Y4	Z4	X5	Y5	Z5	X6	Y6	Z6	X7	Y7	Z7	X8	Y8	Z8	X9	Y9	Z9	X10	Y10	Z10	X11	Y11	Z11	X12	Y12	Z12	X13	Y13	Z13	X14	Y14	Z14	X15	Y15	Z15	X16	Y16	Z16	X17	Y17	Z17	X18	Y18	Z18	X19	Y19	Z19	X20	Y20	Z20	X21	Y21	Z21	X22	Y22	Z22	X23	Y23	Z23	X24	Y24	Z24	X25	Y25	Z25	X26	Y26	Z26	X27	Y27	Z27	X28	Y28	Z28	X29	Y29	Z29	X30	Y30	Z30	X31	Y31	Z31	X32	Y32	Z32	X33	Y33	Z33	X34	Y34	Z34	X35	Y35	Z35	X36	Y36	Z36	X37	Y37	Z37	X38	Y38	Z38	X39	Y39	Z39	X40	Y40	Z40	X41	Y41	Z41	X42	Y42	Z42	X43	Y43	Z43	

377	7.520	-666.13843	127.89648	1849.59753	-664.38300	-54.75970	1555.21228	-687.96057	306.31168	1541.08777				-589.71991	1.96848	1056.03662	-588.16174	226.03271	1074.24097	-789.06512	102.04229	1056.38013	-647.86102	-63.37761	868.44165	-578.98889	4.38934	805.49762	-673.63574	-47.62412	735.99225	-698.79321	-23.90851	614.41931	-680.57526	83.89044	573.97382	-709.48975	-20.68305	569.18512	-660.51685	22.28777	519.76794	-758.11029	-29.93908	491.76880	-767.01654	-5.34634	209.61629	-663.56714	-67.65097	162.87068	-622.72772	-78.06580	158.60597	-559.53021	-37.97651	164.18301	-603.90100	20.01223	166.67801	-716.18640	78.16876	215.98457	-675.70514	54.97130	158.10699	-795.06110	54.65084	175.58089	-640.90210	287.30811	880.67950	-581.10254	224.23596	817.01392	-685.50000	269.30536	711.70367	-726.85187	252.62578	640.00623	-687.89868	148.95074	573.88574	-731.13049	249.20305	576.52490	-675.93646	210.88141	533.20483	-771.70502	256.26672	503.21359	-771.91376	222.92525	205.04857	-667.33600	299.86929	159.37886	-629.86029	306.73978	161.73688	-559.50580	258.54706	165.74739	-594.73779	222.42049	173.43571	-711.28510	153.42389	216.76059	-675.94299	174.94258	158.16048	-796.33716	172.19600	184.31264	-528.02094	304.46008	146.65488	-517.72601	-72.39352	142.91689	-876.08008	-78.61687	141.52290	-882.47900	296.20361	144.75003	
378	7.540	-668.48651	128.41722	1849.55627	-666.06378	-54.30808	1555.42334	-690.04736	306.72229	1540.85327				-587.70013	2.26891	1055.86182	-585.89215	226.58858	1074.46606	-787.00525	102.15329	1056.18970	-645.90436	-63.22306	868.29224	-577.35651	5.00074	805.31628	-672.32660	-47.58619	735.89575	-697.58630	-23.67812	614.36432	-679.98645	84.10645	574.17407	-708.62573	-20.43859	569.11194	-659.73926	22.47274	519.81921	-757.50232	-29.79592	491.78949	-766.88086	-5.11422	209.76190	-663.53906	-67.57879	162.94841	-622.70404	-78.00365	158.67032	-559.52252	-38.02528	164.11447	-603.86615	20.02527	166.65552	-716.11731	78.23605	216.02859	-675.69226	54.92581	158.07813	-795.04700	54.74170	175.74167	-639.08514	287.50122	880.53601	-579.39709	224.53267	816.73560	-683.90619	269.41510	711.64789	-725.59601	252.73927	639.98218	-686.93475	149.15346	573.78778	-729.98206	249.35785	576.49963	-675.00854	210.92831	533.00128	-770.80194	256.42099	503.36060	-771.78229	222.95973	205.08847	-667.31818	299.91205	159.34422	-629.84344	306.73456	161.70612	-559.44159	258.53476	165.67270	-594.69788	222.45956	173.47632	-711.13580	153.33228	216.68408	-675.85266	174.94641	158.13141	-796.23163	172.19727	184.36827	-527.99438	304.39651	146.68900	-517.61505	-72.45256	142.94672	-876.08038	-78.57241	141.54871	-882.49799	296.20703	144.74185	
379	7.560	-670.70685	128.95750	1849.49573	-667.65601	-53.86118	1555.55688	-692.01813	307.07330	1540.55420				-585.87427	2.54879	1055.74561	-583.84576	227.08971	1074.66064	-785.10278	102.24439	1055.92480	-643.98840	-63.08202	868.19000	-575.77716	5.55244	805.23950	-670.79950	-47.36163	735.77228	-696.34393	-23.44545	614.26721	-679.24512	84.30431	574.37665	-707.65948	-20.20151	569.04102	-658.89282	22.68163	519.85687	-756.79053	-29.67079	491.83194	-766.75000	-4.93781	209.91101	-663.49548	-67.48981	163.01709	-622.59308	-77.96045	158.73431	-559.51678	-38.05467	164.01414	-603.81042	20.03437	166.62389	-716.01086	78.32333	216.10323	-675.69836	54.90783	158.02782	-794.92566	54.86636	175.84933	-637.37067	287.67880	880.46753	-577.79071	224.74606	816.48962	-682.45618	269.35083	711.50079	-724.43494	252.84886	639.96729	-686.11212	149.27731	573.72156	-728.93842	249.47084	576.45654	-674.10529	210.93623	532.77374	-769.96204	256.57446	503.52609	-771.66632	222.97556	205.12007	-667.30432	299.96387	159.30663	-629.83716	306.73645	161.69600	-559.38708	258.55640	165.58635	-594.64716	222.50325	173.50081	-711.00916	153.23045	216.59491	-675.77875	174.92517	158.08606	-796.12775	172.19695	184.42467	-527.98480	304.38037	146.71835	-517.54987	-72.50426	142.96260	-876.07788	-78.52842	141.56667	-882.53125	296.20605	144.72301	
380	7.580	-672.84113	129.49179	1849.38196	-669.10767	-53.41425	1555.61755	-693.82159	307.33585	1540.20593				-584.21057	2.79005	1055.69739	-582.16595	227.48135	1074.74719	-783.37823	102.30908	1055.55676	-642.10388	-62.92176	868.12585	-574.22443	6.04895	805.19598	-669.09131	-47.09501	735.67126	-695.08160	-23.23480	614.19373	-678.35809	84.47523	574.49799	-706.61389	-20.00434	569.03760	-658.02112	22.89132	519.82336	-755.98108	-29.56054	491.92163	-766.63068	-4.81021	210.06734	-663.45105	-67.38529	163.06421	-622.44891	-77.91151	158.79832	-559.51996	-38.04881	163.92661	-603.75641	20.04391	166.57372	-715.87720	78.39555	216.13965	-675.73206	54.91800	157.92789	-794.74017	55.02950	175.91980	-635.78992	287.89734	880.45081	-576.32928	224.88451	816.28174	-681.15790	269.17923	711.33295	-723.36774	252.97777	639.98395	-685.28754	149.26038	573.76239	-728.01904	249.54712	576.40491	-673.26178	210.94107	532.57275	-769.18060	256.61368	503.64124	-771.58691	222.96863	205.18323	-667.28558	299.99249	159.27454	-629.83612	306.75323	161.71249	-559.33154	258.60852	165.49648	-594.57721	222.54512	173.50658	-710.93268	153.13918	216.50085	-675.72974	174.88286	158.02295	-796.02716	172.16469	184.48111	-527.99780	304.41782	146.73326	-517.54773	-72.48586	142.94489	-876.07495	-78.51234	141.59140	-882.54230	296.19382	144.70831	
381	7.600	-674.91840	130.01270	1849.21326	-670.39447	-53.01899	1555.61243	-695.43488	307.53287	1539.81567				-582.66833	2.99216	1055.69556	-580.81921	227.80728	1074.74634	-781.84521	102.31953	1055.12659	-640.30072	-62.75903	868.04004	-572.72443	6.51116	805.11206	-667.34851	-46.95467	735.66272	-693.82947	-23.09636	614.20209	-677.41229	84.62567	574.55530	-705.56512	-19.83263	569.06958	-657.18884	23.06886	519.68665	-755.18097	-29.43156	491.99371	-766.51752	-4.73176	210.22127	-663.41071	-67.27356	163.08809	-622.31812	-77.85027	158.84186	-559.54980	-37.99878	163.88231	-603.71948	20.05484	166.50221	-715.75226	78.43816	216.12233	-675.76050	54.92550	157.81384	-794.56104	55.19395	175.97324	-634.42432	288.15512	880.41846	-575.04822	224.99655	816.09796	-679.99908	268.99899	711.16724	-722.39008	253.07959	640.01465	-684.36890	149.16742	573.87335	-727.18488	249.60205	576.38544	-672.51385	210.97075	532.44336	-768.47809	256.51575	503.70471	-771.55341	222.94031	205.29311	-667.26123	299.98434	159.26190	-629.83539	306.77658	161.74342	-559.27637	258.66473	165.42894	-594.49078	222.56737	173.49910	-710.90479	153.05507	216.41859	-675.67719	174.84032	157.95680	-795.92993	172.09891	184.54813	-528.01978	304.48740	146.74179	-517.57031	-72.40193	142.91591	-876.07745	-78.51518	141.62917	-882.52075	296.18088	144.71259	
382	7.620	-676.93292	130.52176	1849.01868	-671.54120	-52.72447	1555.54211	-696.86401	307.71313	1539.37634				-581.22247	3.16112	1055.70898	-579.69757	228.10052	1074.71155	-780.51270	102.27234	1054.71887	-638.63757	-62.63986	867.91577	-571.32062	6.91765	804.96820	-665.69550	-46.98652	735.75879	-692.65204	-23.04613	614.26843	-676.49768	84.78300	574.60925	-704.58496	-19.65427	569.04395	-656.43951	23.19528	519.48712	-754.47180	-29.29303	492.02838	-766.39954	-4.70249	210.36302	-663.36914	-67.17593	163.10323	-622.22620	-77.78683	158.85229	-559.60449	-37.92178	163.87878	-603.69714	20.06917	166.40733	-715.65479	78.45488	216.07407	-675.74780	54.91438	157.73405	-794.42755	55.31153	176.01698	-633.28967	288.38611	880.32959	-573.92847	225.09749	815.93616	-678.92114	268.92908	711.03210	-721.49365	253.08411	640.02057	-683.43011	149.10896	573.93365	-726.41156	249.61234	576.40710	-671.85651	211.00388	532.37195	-767.87927	256.34485	503.75168	-771.55457	222.87901	205.42210	-667.24768	299.95059	159.28015	-629.83917	306.79068	161.77203	-559.23413	258.70612	165.40689	-594.40961	222.55992	173.48367	-710.90283	152.96230	216.36435	-675.60608	174.80911	157.90083	-795.84546	172.02863	184.63164	-528.03619	304.55789	146.75873	-517.56720	-72.33241	142.92670	-876.08179	-78.51962	141.65916	-882.49133	296.17361	144.72534	
383	7.640	-678.85345	131.00780	1848.81494	-672.59528	-52.52178	1555.40759	-698.12036	307.88644	1538.89063				-579.88214	3.31746	1055.71948	-578.72693	228.35674	1074.68958	-779.37103	102.17538	1054.38379	-637.14136	-62.57077	867.77148	-570.05121	7.21766	804.77509	-664.19940	-47.13367	735.91052	-691.62878	-23.02952	614.29877	-675.69458	84.97324	574.68433	-703.71039	-19.48045	568.93335	-655.76715	23.28165	519.31293	-753.84222	-29.20292	492.09299	-766.28424	-4.70272	210.47920	-663.32825	-67.11480	163.13159	-622.18085	-77.73797	158.84454	-559.65375	-37.85553	163.89249	-603.68134	20.09533	166.30505	-715.58209	78.45140	216.01926	-675.69513	54.89886	157.69031	-794.35150	55.36739	176.04495	-632.28735	288.55200	880.21259	-572.92859	225.15390	815.81256	-677.88776	268.98907	710.94495	-720.67041	252.98784	639.98151	-682.63019	149.13342	573.87653	-725.72906	249.53290	576.40668	-671.25446	211.00575	532.29980	-767.36938	256.17810	503.79688	-771.56335	222.78613	205.52611	-667.25940	299.91342	159.32483	-629.84924	306.79257	161.79022	-559.20825	258.73297	165.42354	-594.35938	222.53036	173.46486	-710.90228	152.86203	216.34326	-675.55200	174.78078	157.85712	-795.78601	171.98163	184.71635	-528.05359	304.58768	146.77664	-517.53058	-72.34166	142.99307	-876.08026	-78.52670	141.66246	-882.48218	296.16357	144.71820	
384	7.660	-680.63660	131.44737	1848.60022	-673.60339	-52.39026	1555.22852	-699.24817	308.01959	1538.38953				-578.67310	3.46814	1055.72632	-577.89240	228.59454	1074.70679	-778.38684	102.02036	1054.10791	-635.82318	-62.51448	867.63165	-568.95514	7.38290	804.55505	-662.88251	-47.31946	736.05933	-690.80310	-22.97034	614.21344	-675.07910	85.18456	574.76495	-702.94116	-19.37952	568.83154	-655.15961	23.36085	519.20770	-753.26843	-29.18891	492.22147	-766.19836	-4.70857	210.55357	-663.30084	-67.09026	163.18343	-622.17700	-77.71557	158.84979	-559.67871	-37.82828	163.89647	-603.67010	20.13102	166.23074	-715.53534	78.43884	215.97758	-675.63171	54.89006	157.64394	-794.32880	55.38698	176.05020	-631.34998	288.64969	880.08838	-572.04840	225.14253	815.72565	-676.91010	269.08029	710.87494	-719.93604	252.87122	639.91248	-682.05103	149.21750	573.74390	-725.17981	249.38272	576.33258	-670.70325	210.97789	532.19104	-766.90051	256.07410	503.83777	-771.56238	222.68954	205.59666	-667.28290	299.88898	159.37157	-629.85815	306.78568	161.78973	-559.19153	258.75232	165.44958	-594.34766	222.49303	173.44696	-710.89490	152.77197	216.33633	-675.55231	174.74239	157.81902	-795.75732	171.96016	184.77513	-528.08606	304.56683	146.77287	-517.49384	-72.41121	143.08243	-876.07587	-78.54053	141.65018	-882.50067	296.15149	144.68663	
385	7.680	-682.22430	131.82324	1848.38550	-674.59265	-52.35173	1555.04565	-700.33215	308.07748	1537.92896				-577.58105	3.57659	1055.72607	-577.21558	228.84518	1074.72620	-777.53931	101.80943	1053.86133	-634.68127	-62.48629	867.55066	-568.05066	7.45667	804.35870	-661.74384	-47.49610	736.17059	-690.12573	-22.83741	614.01642	-674.67218	85.35569	574.82324	-702.27625	-19.40306	568.83612	-654.64398	23.46467	519.15186	-752.77014	-29.23057	492.35953	-766.16394	-4.71635	210.59138	-663.29279	-67.07847	163.24570	-622.19495	-77.71697	158.88792	-559.69476	-37.84294	163.87613	-603.66760	20.15562	166.20593	-715.51624	78.42989	215.95787	-675.58002	54.87943	157.56897	-794.33527	55.40154	176.03603	-630.55420	288.66672	879.90466	-571.32086	225.10315	815.63806	-676.02283	269.10602	710.76721	-719.33350	252.81049	639.83765	-681.65308	149.31767	573.59900	-724.77991	249.25285	576.22784	-670.24854	210.94084	532.05597	-766.45105	256.05450	503.87466	-771.55310	222.61948	205.65215	-667.28955	299.87643	159.39667	-629.86011	306.77020	161.76645	-559.17657	258.76898	165.46068	-594.36273	222.46051	173.43277	-710.88232	152.71149	216.31587	-675.59637	174.69627	157.78185	-795.75769	171.95180	184.79489	-528.12732	304.52866	146.73792	-517.49066	-72.47759	143.14810	-876.07330	-78.55201	141.63963	-882.53375	296.15482	144.66214	
